<?xml version="1.0" encoding="UTF-8" standalone="no"?>
<!-- Created with Inkscape (http://www.inkscape.org/) -->

<svg
   xmlns:dc="http://purl.org/dc/elements/1.1/"
   xmlns:cc="http://creativecommons.org/ns#"
   xmlns:rdf="http://www.w3.org/1999/02/22-rdf-syntax-ns#"
   xmlns:svg="http://www.w3.org/2000/svg"
   xmlns="http://www.w3.org/2000/svg"
   xmlns:sodipodi="http://sodipodi.sourceforge.net/DTD/sodipodi-0.dtd"
   xmlns:inkscape="http://www.inkscape.org/namespaces/inkscape"
   width="416.00699"
   height="85.681"
   id="svg3054"
   version="1.1"
   inkscape:version="0.48.4 r9939"
   sodipodi:docname="netjson-logo.svg">
  <defs
     id="defs3056" />
  <sodipodi:namedview
     id="base"
     pagecolor="#ffffff"
     bordercolor="#666666"
     borderopacity="1.0"
     inkscape:pageopacity="0.0"
     inkscape:pageshadow="2"
     inkscape:zoom="0.84628906"
     inkscape:cx="-129.78672"
     inkscape:cy="48.554787"
     inkscape:document-units="px"
     inkscape:current-layer="layer1"
     showgrid="false"
     fit-margin-top="0"
     fit-margin-left="0"
     fit-margin-right="0"
     fit-margin-bottom="0"
     inkscape:window-width="1280"
     inkscape:window-height="776"
     inkscape:window-x="0"
     inkscape:window-y="24"
     inkscape:window-maximized="1" />
  <metadata
     id="metadata3059">
    <rdf:RDF>
      <cc:Work
         rdf:about="">
        <dc:format>image/svg+xml</dc:format>
        <dc:type
           rdf:resource="http://purl.org/dc/dcmitype/StillImage" />
        <dc:title></dc:title>
      </cc:Work>
    </rdf:RDF>
  </metadata>
  <g
     inkscape:label="Layer 1"
     inkscape:groupmode="layer"
     id="layer1"
     transform="translate(-289.13936,-495.23597)">
    <path
       style="fill:#ffffff;fill-opacity:1"
       inkscape:connector-curvature="0"
       d="m 410.72936,543.49697 h -33.768 c 1.512,6.888 6.804,11.172 13.86,11.172 4.872,0 9.324,-1.848 12.6,-5.208 l 5.124,5.46 c -4.368,4.788 -10.752,7.56 -18.479,7.56 -13.776,0 -22.848,-9.156 -22.848,-22.596 0,-13.524 9.324,-22.68 22.596,-22.764 15.707,0 22.091,10.248 20.915,26.376 z m -8.4,-7.056 c -0.336,-7.224 -5.124,-11.592 -12.432,-11.592 -7.056,0 -12.012,4.452 -13.104,11.592 h 25.536 z"
       id="path34" />
    <path
       style="fill:#ffffff;fill-opacity:1"
       inkscape:connector-curvature="0"
       d="m 438.61736,559.28897 c -3.528,2.1 -7.224,3.276 -11.004,3.276 -6.72,0 -12.516,-3.864 -12.516,-13.02 v -23.184 h -6.3 v -7.224 h 6.3 v -12.264 h 9.576 v 12.264 h 13.188 v 7.224 h -13.188 v 21.42 c 0,4.62 1.764,6.048 4.788,6.048 2.016,0 4.116,-0.672 6.72,-1.932 l 2.436,7.392 z"
       id="path36" />
    <path
       style="fill:#ffffff;fill-opacity:1"
       inkscape:connector-curvature="0"
       d="m 461.29736,527.20097 c 0,5.376 -1.596,7.98 -5.88,9.072 4.284,1.008 5.88,3.612 5.88,8.988 v 13.776 c 0,4.2 2.016,5.964 7.979,5.964 v 7.728 h -3.611 c -9.408,0 -13.104,-2.94 -13.104,-10.752 v -17.304 c 0,-3.192 -1.092,-4.452 -3.612,-4.452 h -2.605 v -7.98 h 2.604 c 2.52,0 3.612,-1.26 3.612,-4.452 v -17.388 c 0,-7.728 3.696,-10.668 13.104,-10.668 h 3.611 v 7.728 c -5.964,0 -7.979,1.764 -7.979,5.964 v 13.776 z"
       id="path38" />
    <path
       d="m 511.01721,545.54215 c 0,12.516 -7.812,19.74 -20.327,19.74 -8.316,0 -15.036,-3.444 -20.244,-9.408 l 6.888,-9.996 c 4.2,4.368 8.904,6.552 12.348,6.552 3.948,0 6.301,-2.436 6.301,-7.224 v -27.38401 h -20.16 v -12.096 h 35.195 v 39.81601 z"
       id="path40"
       inkscape:connector-curvature="0"
       style="fill:#ffffff;fill-opacity:1" />
    <path
       d="m 560.41021,511.69014 -5.628,11.676 c -6.217,-3.612 -14.028,-6.132 -18.816,-6.132 -3.864,0 -6.468,1.428 -6.468,4.284 0,10.164 31.08,4.368 31.08,25.62001 0,11.76 -10.416,17.976 -23.521,17.976 -9.828,0 -19.907,-3.696 -26.88,-9.408 l 5.796,-11.508 c 6.048,5.292 15.12,8.82 21.252,8.82 4.704,0 7.645,-1.764 7.645,-5.124 0,-10.41601 -31.08,-4.2 -31.08,-25.03201 0,-10.836 9.324,-17.724 23.436,-17.724 8.484,0 17.135,2.604 23.184,6.552 z"
       id="path42"
       inkscape:connector-curvature="0"
       style="fill:#ffffff;fill-opacity:1" />
    <path
       d="m 622.98921,535.12614 c 0,17.13601 -13.607,30.15601 -31.836,30.15601 -18.144,0 -31.752,-12.936 -31.752,-30.15601 0,-17.136 13.608,-29.82 31.752,-29.82 18.229,0 31.836,12.768 31.836,29.82 z m -48.3,0.084 c 0,9.91201 7.645,17.55601 16.632,17.55601 9.072,0 16.296,-7.644 16.296,-17.55601 0,-9.912 -7.224,-17.388 -16.296,-17.388 -9.071,0 -16.632,7.476 -16.632,17.388 z"
       id="path44"
       inkscape:connector-curvature="0"
       style="fill:#ffffff;fill-opacity:1" />
    <path
       d="m 664.82121,564.61015 -27.048,-36.20401 v 36.20401 h -14.028 v -58.80001 h 13.188 l 27.132,36.28801 v -36.28801 h 13.943 v 58.80001 h -13.187 z"
       id="path46"
       inkscape:connector-curvature="0"
       style="fill:#ffffff;fill-opacity:1" />
    <path
       style="fill:#ffffff;fill-opacity:1"
       inkscape:connector-curvature="0"
       d="m 705.14636,540.22097 h -2.604 c -2.521,0 -3.612,1.26 -3.612,4.452 v 17.304 c 0,7.812 -3.696,10.752 -13.104,10.752 h -3.612 v -7.728 c 5.964,0 7.979,-1.764 7.979,-5.964 v -13.776 c 0,-5.376 1.597,-7.98 5.881,-9.072 -4.284,-1.008 -5.881,-3.612 -5.881,-8.988 v -13.776 c 0,-4.2 -2.016,-5.964 -7.979,-5.964 v -7.728 h 3.612 c 9.407,0 13.104,2.94 13.104,10.668 v 17.388 c 0,3.192 1.092,4.452 3.612,4.452 h 2.604 v 7.98 z"
       id="path48" />
    <path
       style="fill:#ffffff;fill-opacity:1"
       inkscape:connector-curvature="0"
       d="m 308.17836,553.23097 v -30.306 c 0.465,-0.168 0.921,-0.342 1.367,-0.555 l 32.764,38.145 c -0.889,1.855 -1.428,3.92 -1.428,6.123 0,7.884 6.393,14.279 14.281,14.279 7.888,0 14.282,-6.396 14.282,-14.279 0,-6.211 -3.984,-11.436 -9.521,-13.406 v -30.307 c 5.537,-1.967 9.521,-7.196 9.521,-13.404 0,-7.885 -6.393,-14.28 -14.281,-14.28 -7.888,0 -14.281,6.396 -14.281,14.28 0,6.213 3.984,11.438 9.521,13.404 v 30.307 c -0.465,0.166 -0.92,0.344 -1.363,0.553 l -32.768,-38.146 c 0.888,-1.862 1.427,-3.924 1.427,-6.122 0,-7.887 -6.391,-14.281 -14.28,-14.281 -7.889,0 -14.28,6.394 -14.28,14.281 0,6.212 3.983,11.438 9.521,13.403 v 30.312 c -5.538,1.971 -9.521,7.195 -9.521,13.406 0,7.884 6.392,14.279 14.28,14.279 7.89,0 14.28,-6.396 14.28,-14.279 -0.001,-6.211 -3.983,-11.436 -9.521,-13.407 z"
       id="path50" />
  </g>
</svg>
